<svg xmlns="http://www.w3.org/2000/svg" xmlns:xlink="http://www.w3.org/1999/xlink" viewBox="0 0 24 24"><style>:root svg:not(:target) { display: none }</style>

<svg xmlns="http://www.w3.org/2000/svg" id="insta" viewBox="0 0 20 20"><path d="M10 5.5a4.48 4.48 0 1 0-.01 8.97A4.48 4.48 0 0 0 10 5.51Zm0 7.41a2.92 2.92 0 1 1 .01-5.84 2.92 2.92 0 0 1 0 5.84Zm5.72-7.59a1.04 1.04 0 1 1-2.1 0 1.05 1.05 0 0 1 2.1 0ZM18.7 6.4a5.18 5.18 0 0 0-1.42-3.67 5.21 5.21 0 0 0-3.67-1.42c-1.44-.08-5.77-.08-7.22 0a5.2 5.2 0 0 0-3.67 1.41C1.7 3.74 1.38 4.98 1.31 6.38c-.08 1.45-.08 5.78 0 7.23.06 1.4.39 2.64 1.41 3.66A5.22 5.22 0 0 0 6.4 18.7c1.45.08 5.78.08 7.22 0a5.18 5.18 0 0 0 3.67-1.42 5.21 5.21 0 0 0 1.42-3.66c.08-1.45.08-5.78 0-7.22Zm-1.87 8.77c-.3.76-.9 1.35-1.67 1.66-1.15.46-3.88.35-5.16.35-1.27 0-4 .1-5.16-.35-.76-.3-1.35-.9-1.66-1.66-.46-1.16-.35-3.89-.35-5.16 0-1.28-.1-4.02.35-5.16.3-.77.9-1.36 1.66-1.67C6 2.71 8.73 2.82 10 2.82c1.28 0 4.02-.1 5.16.35.77.3 1.36.9 1.67 1.67.46 1.15.35 3.88.35 5.16 0 1.27.1 4-.35 5.16Z"/></svg>

<svg xmlns="http://www.w3.org/2000/svg" id="fb" viewBox="0 0 18 18"><path d="m13.19 10.13.5-3.26h-3.13V4.75C10.56 3.86 11 3 12.4 3h1.42V.22S12.53 0 11.3 0C8.72 0 7.04 1.56 7.04 4.38v2.49H4.18v3.25h2.86V18h3.52v-7.88h2.63Z"/></svg>
</svg>
