<svg xmlns="http://www.w3.org/2000/svg" xmlns:xlink="http://www.w3.org/1999/xlink" viewBox="0 0 24 24"><style>:root svg:not(:target) { display: none }</style>

<svg xmlns="http://www.w3.org/2000/svg" viewBox="0 0 22 21" id="nav"><path d="M.78 4.45H21.1c.44 0 .79-.35.79-.79V1.71a.78.78 0 0 0-.79-.78H.8a.78.78 0 0 0-.79.78v1.95c0 .44.35.79.78.79Zm0 7.8H15.1c.44 0 .79-.34.79-.77V9.52a.78.78 0 0 0-.79-.78H.8a.78.78 0 0 0-.79.78v1.96c0 .43.35.78.78.78Zm0 7.82H21.1c.44 0 .79-.35.79-.78v-1.95a.78.78 0 0 0-.79-.79H.8a.78.78 0 0 0-.79.79v1.95c0 .43.35.78.78.78Z"/></svg>

<svg xmlns="http://www.w3.org/2000/svg" id="close" viewBox="0 0 1024 1024"><path d="M195.2 195.2a64 64 0 0 1 90.5 0L512 421.5l226.3-226.3a64 64 0 0 1 90.5 90.5L602.5 512l226.3 226.3a64 64 0 0 1-90.5 90.5L512 602.5 285.7 828.8a64 64 0 0 1-90.5-90.5L421.5 512 195.2 285.7a64 64 0 0 1 0-90.5z"/></svg>

<svg xmlns="http://www.w3.org/2000/svg" viewBox="0 0 15 15" id="plus"><path d="M14.13 8.47c0 .32-.26.58-.58.58h-4.5v4.5c0 .32-.26.58-.58.58H5.73a.59.59 0 0 1-.58-.58v-4.5H.65a.59.59 0 0 1-.58-.58V5.73c0-.32.26-.58.58-.58h4.5V.65c0-.32.26-.58.58-.58h2.74c.32 0 .58.26.58.58v4.5h4.5c.32 0 .58.26.58.58v2.74Z"/></svg>
</svg>
